<?xml version="1.0" standalone="no"?>
<!DOCTYPE svg PUBLIC "-//W3C//DTD SVG 20010904//EN"
 "http://www.w3.org/TR/2001/REC-SVG-20010904/DTD/svg10.dtd">
<svg version="1.0" xmlns="http://www.w3.org/2000/svg"
 width="700.000000pt" height="700.000000pt" viewBox="0 0 700.000000 700.000000"
 preserveAspectRatio="xMidYMid meet">
<metadata>
Created by potrace 1.11, written by Peter Selinger 2001-2013
</metadata>
<g transform="translate(0.000000,700.000000) scale(0.100000,-0.100000)"
fill="#000000" stroke="none">
<path d="M1711 5613 c-98 -103 -415 -435 -450 -470 l-23 -24 48 -46 c27 -25
127 -120 223 -211 96 -92 182 -174 191 -182 8 -8 54 -52 101 -97 l86 -81 -30
-49 c-17 -26 -52 -91 -78 -144 -245 -486 -270 -1058 -67 -1569 34 -85 111
-242 139 -281 18 -26 18 -26 -9 -56 -24 -28 -278 -294 -427 -448 -33 -35 -98
-102 -144 -151 l-84 -88 110 -105 c60 -58 190 -184 289 -278 l179 -173 95 98
c126 130 442 461 513 537 49 52 59 58 74 48 34 -23 218 -122 275 -147 314
-139 682 -188 1049 -141 214 27 516 136 704 253 l50 31 29 -27 c58 -55 125
-118 290 -276 93 -88 190 -181 215 -205 25 -24 74 -71 109 -105 l63 -61 61 65
c34 36 135 142 224 235 221 231 264 277 264 285 0 4 -29 34 -64 66 -59 55
-264 250 -513 489 l-105 100 37 60 c86 141 203 428 219 536 3 20 8 42 10 50
36 101 52 429 30 618 -30 256 -117 527 -235 726 l-47 80 68 70 c38 38 88 91
112 116 23 25 115 121 203 214 88 92 184 192 212 223 l53 55 -38 35 c-20 19
-118 112 -217 207 -301 287 -320 305 -332 305 -6 0 -13 -4 -15 -9 -1 -5 -41
-49 -88 -98 -83 -86 -398 -416 -477 -500 l-40 -41 -69 40 c-188 109 -406 196
-586 234 -217 45 -542 51 -739 14 -30 -6 -66 -13 -80 -15 -151 -27 -456 -151
-597 -243 -22 -14 -25 -13 -64 24 -22 21 -53 50 -68 64 -14 14 -107 102 -205
195 -98 94 -195 186 -215 205 -20 19 -59 57 -87 83 l-49 48 -83 -88z m1938
-1017 c244 -34 481 -152 651 -325 95 -96 118 -123 159 -191 167 -270 217 -522
167 -840 -9 -56 -39 -159 -69 -230 -30 -74 -108 -212 -134 -238 -7 -7 -13 -17
-13 -21 0 -16 -166 -178 -234 -228 -122 -90 -316 -179 -430 -197 -21 -4 -41
-8 -45 -10 -12 -8 -143 -18 -225 -18 -471 -2 -915 318 -1074 772 -54 156 -79
382 -58 520 4 25 10 59 12 75 22 144 110 343 207 472 189 251 456 411 767 457
84 12 235 13 319 2z"/>
</g>
</svg>
